<?xml version="1.0" standalone="no"?><!DOCTYPE svg PUBLIC "-//W3C//DTD SVG 1.1//EN" "http://www.w3.org/Graphics/SVG/1.1/DTD/svg11.dtd"><svg t="1779629227064" class="icon" viewBox="0 0 1024 1024" version="1.1" xmlns="http://www.w3.org/2000/svg" p-id="5483" xmlns:xlink="http://www.w3.org/1999/xlink" width="200" height="200"><path d="M85.333333 170.666667a32 32 0 0 1 32-32h789.333334a32 32 0 0 1 0 64H117.333333A32 32 0 0 1 85.333333 170.666667zM128 202.666667h42.666667v661.333333a21.333333 21.333333 0 0 1-42.666667 0V202.666667z" fill="#595959" p-id="5484"></path><path d="M341.333333 330.666667v-85.333334H234.666667a21.333333 21.333333 0 0 0-21.333334 21.333334v42.666666a21.333333 21.333333 0 0 0 21.333334 21.333334H341.333333z m426.666667 0v-85.333334h106.666667a21.333333 21.333333 0 0 1 21.333333 21.333334v42.666666a21.333333 21.333333 0 0 1-21.333333 21.333334H768z m-384-85.333334h341.333333v85.333334H384v-85.333334zM341.333333 458.666667v-85.333334H234.666667a21.333333 21.333333 0 0 0-21.333334 21.333334v42.666666a21.333333 21.333333 0 0 0 21.333334 21.333334H341.333333z m426.666667 0v-85.333334h106.666667a21.333333 21.333333 0 0 1 21.333333 21.333334v42.666666a21.333333 21.333333 0 0 1-21.333333 21.333334H768z m-384-85.333334h341.333333v85.333334H384v-85.333334z" fill="#3B82F6" p-id="5485"></path></svg>