<?xml version="1.0" standalone="no"?><!DOCTYPE svg PUBLIC "-//W3C//DTD SVG 1.1//EN" "http://www.w3.org/Graphics/SVG/1.1/DTD/svg11.dtd"><svg t="1779631223336" class="icon" viewBox="0 0 1024 1024" version="1.1" xmlns="http://www.w3.org/2000/svg" p-id="19336" xmlns:xlink="http://www.w3.org/1999/xlink" width="200" height="200"><path d="M540.045443 621.038749c0.284437 1.535957 0.398211 3.128802 0.398211 4.721647v199.10558h85.330963c1.422183 0 2.787478 0.113775 4.12433 0.284436l10.012167-119.349573 11.804116-7.679787a255.992889 255.992889 0 1 0-279.402016 0l11.775672 7.679787 1.023972 14.022721 8.902864 105.355296C395.381017 824.979751 396.8032 824.865976 398.225383 824.865976h85.330963v-199.10558c0-1.621288 0.142218-3.185689 0.398211-4.721647A85.359407 85.359407 0 0 1 512 455.098469a85.330963 85.330963 0 0 1 28.045443 165.94028zM625.205744 881.753285h-226.411488l2.133274 25.001972c5.119858 41.869059 19.284798 60.328991 46.647593 60.328991h128.906641c27.362795 0 41.527735-18.459932 46.505375-58.963696L625.205744 881.753285z m-295.814005-144.123997A312.481987 312.481987 0 0 1 199.119802 483.542124c0-172.7952 140.084998-312.880198 312.880198-312.880198s312.880198 140.084998 312.880198 312.880198c0 102.112719-49.321297 195.863004-130.271937 254.087164l-15.046693 176.009333C671.341352 980.765645 638.232938 1023.971556 576.453321 1023.971556h-128.906642c-61.779617 0-94.888031-43.234355-103.250465-111.69823l-14.904475-174.644038zM512 0a28.443654 28.443654 0 0 1 28.443654 28.443654v56.887309a28.443654 28.443654 0 0 1-56.887308 0V28.443654a28.443654 28.443654 0 0 1 28.443654-28.443654zM28.457876 455.098469a28.443654 28.443654 0 0 1 28.443655-28.443654h56.887308a28.443654 28.443654 0 0 1 0 56.887309H56.901531a28.443654 28.443654 0 0 1-28.443655-28.443655z m853.30963 0a28.443654 28.443654 0 0 1 28.443655-28.443654h56.887308a28.443654 28.443654 0 0 1 0 56.887309h-56.887308a28.443654 28.443654 0 0 1-28.443655-28.443655zM190.785812 133.884281a28.443654 28.443654 0 0 1 40.219327 0l40.247771 40.219327A28.443654 28.443654 0 0 1 230.976695 214.351379L190.785812 174.075165a28.443654 28.443654 0 0 1 0-40.219328z m649.340185 0a28.443654 28.443654 0 0 1 0 40.219327L799.849782 214.351379a28.443654 28.443654 0 1 1-40.219327-40.247771l40.219327-40.219327a28.443654 28.443654 0 0 1 40.247771 0zM512 568.873087a28.443654 28.443654 0 1 0 0-56.887309 28.443654 28.443654 0 0 0 0 56.887309z" fill="#8a8a8a" p-id="19337"></path></svg>