<?xml version="1.0" standalone="no"?><!DOCTYPE svg PUBLIC "-//W3C//DTD SVG 1.1//EN" "http://www.w3.org/Graphics/SVG/1.1/DTD/svg11.dtd"><svg t="1779630812665" class="icon" viewBox="0 0 1024 1024" version="1.1" xmlns="http://www.w3.org/2000/svg" p-id="6523" xmlns:xlink="http://www.w3.org/1999/xlink" width="200" height="200"><path d="M509.305263 614.4m-129.347368 0a129.347368 129.347368 0 1 0 258.694737 0 129.347368 129.347368 0 1 0-258.694737 0Z" fill="#10ABFF" opacity=".4" p-id="6524"></path><path d="M935.073684 145.515789H88.926316c-29.642105 0-53.894737 24.252632-53.894737 53.894737v134.736842c0 29.642105 24.252632 53.894737 53.894737 53.894737h8.08421v72.757895c0 29.642105 21.557895 53.894737 48.505263 61.978947 8.084211 196.715789 169.768421 353.010526 369.178948 353.010527 199.410526 0 361.094737-156.294737 369.178947-353.010527 26.947368-8.084211 48.505263-32.336842 48.505263-61.978947v-72.757895h8.084211c29.642105 0 53.894737-24.252632 53.894737-53.894737v-134.736842c-5.389474-29.642105-29.642105-53.894737-59.284211-53.894737z m-862.315789 53.894737c0-8.084211 8.084211-16.168421 16.168421-16.168421h846.147368c8.084211 0 16.168421 8.084211 16.168421 16.168421v134.736842c0 8.084211-8.084211 16.168421-16.168421 16.168421H88.926316c-8.084211 0-16.168421-8.084211-16.168421-16.168421v-134.736842zM889.263158 460.8c0 16.168421-13.473684 26.947368-26.947369 26.947368-10.778947 0-18.863158 8.084211-18.863157 18.863158 0 183.242105-148.210526 331.452632-331.452632 331.452632S180.547368 692.547368 180.547368 509.305263c0-10.778947-8.084211-18.863158-18.863157-18.863158-16.168421 0-26.947368-13.473684-26.947369-26.947368v-72.757895h754.526316v70.063158z" fill="#10ABFF" p-id="6525"></path><path d="M509.305263 765.305263c83.536842 0 148.210526-67.368421 148.210526-148.210526 0-83.536842-67.368421-148.210526-148.210526-148.210526s-148.210526 67.368421-148.210526 148.210526 67.368421 148.210526 148.210526 148.210526z m0-261.389474c61.978947 0 110.484211 51.2 110.484211 110.484211S571.284211 727.578947 509.305263 727.578947s-110.484211-51.2-110.48421-110.48421 51.2-113.178947 110.48421-113.178948z" fill="#10ABFF" p-id="6526"></path><path d="M509.305263 679.073684c35.031579 0 64.673684-29.642105 64.673684-64.673684 0-10.778947-8.084211-18.863158-18.863158-18.863158s-18.863158 8.084211-18.863157 18.863158c0 13.473684-10.778947 26.947368-26.947369 26.947368-10.778947 0-18.863158 8.084211-18.863158 18.863158s10.778947 18.863158 18.863158 18.863158z" fill="#10ABFF" p-id="6527"></path></svg>