<?xml version="1.0" standalone="no"?><!DOCTYPE svg PUBLIC "-//W3C//DTD SVG 1.1//EN" "http://www.w3.org/Graphics/SVG/1.1/DTD/svg11.dtd"><svg t="1779238291111" class="icon" viewBox="0 0 1024 1024" version="1.1" xmlns="http://www.w3.org/2000/svg" p-id="12989" xmlns:xlink="http://www.w3.org/1999/xlink" width="200" height="200"><path d="M416.768 435.712c29.696-7.168 60.416-20.48 91.136-20.48 31.744 0 63.488 13.312 96.768 20.992 26.624-41.472 55.808-81.92 80.384-125.44 49.152-87.552 26.112-183.808-55.296-242.176-55.296-39.936-117.76-47.616-182.272-39.424-73.216 9.216-139.264 36.864-188.416 95.232-27.648 32.768-20.48 52.224 12.288 78.848 30.72 24.576 63.488 51.712 82.944 84.992 27.136 45.568 42.496 98.304 62.464 147.456z m-67.072 107.008c-46.592-3.072-87.552-5.632-129.024-8.704-148.992-10.24-245.76 107.008-202.24 250.88 32.256 106.496 103.936 179.2 212.48 208.896 49.664 13.312 62.976-3.072 71.68-51.2 7.68-41.472 19.456-83.968 39.936-120.32 22.016-38.912 56.32-71.68 87.04-109.568-58.368-37.376-84.992-93.696-79.872-169.984z m217.088 184.832c22.016 45.056 40.96 92.672 66.56 136.192 40.96 69.632 116.224 99.328 192.512 82.432 163.84-36.864 225.792-247.296 183.296-358.912-14.336-37.376-34.304-45.056-71.168-26.624-54.272 27.136-111.104 32.256-169.984 20.992-32.256-6.144-64-14.848-96.256-22.528-18.432 98.816-18.944 99.328-104.96 168.448z m-60.416-265.728c-60.928 1.024-109.056 50.688-108.032 112.64 1.024 62.464 49.152 109.568 111.616 108.544 61.44-1.024 109.568-50.688 108.544-112.128-0.512-60.928-51.2-109.568-112.128-109.056z" fill="#FFFFFF" p-id="12990"></path><path d="M416.768 435.712c-19.968-49.152-35.328-101.888-62.464-147.456-19.456-33.28-52.224-60.416-82.944-84.992-32.768-26.112-39.424-45.568-12.288-78.848 48.64-58.368 114.688-86.016 188.416-95.232 64.512-8.192 126.976-0.512 182.272 39.424 81.408 58.88 104.448 155.136 55.296 242.176-24.576 43.008-53.76 83.968-80.384 125.44-33.28-7.68-65.024-20.992-96.768-20.992-30.72-0.512-61.44 12.8-91.136 20.48zM349.696 542.72c-4.608 76.288 21.504 132.608 79.872 169.984-30.72 37.888-65.024 70.144-87.04 109.568-20.48 36.352-32.256 78.848-39.936 120.32-8.704 48.64-22.016 65.024-71.68 51.2-108.544-29.696-180.224-102.4-212.48-208.896-43.52-143.36 53.248-261.12 202.24-250.88 40.96 2.56 82.432 5.632 129.024 8.704zM566.784 727.552c86.016-69.12 86.528-69.632 105.472-168.448 32.256 7.68 64 16.384 96.256 22.528 58.88 11.264 115.712 5.632 169.984-20.992 36.864-18.432 56.832-10.752 71.168 26.624 42.496 111.616-19.456 322.56-183.296 358.912-76.288 16.896-151.552-12.288-192.512-82.432-26.112-43.52-45.056-91.136-67.072-136.192zM506.368 461.824c60.928-1.024 111.104 48.128 112.128 109.056 1.024 61.44-47.104 111.104-108.544 112.128-62.464 1.024-111.104-46.08-111.616-108.544-1.024-61.952 47.104-111.616 108.032-112.64z" p-id="12991"></path></svg>