<?xml version="1.0" standalone="no"?><!DOCTYPE svg PUBLIC "-//W3C//DTD SVG 1.1//EN" "http://www.w3.org/Graphics/SVG/1.1/DTD/svg11.dtd"><svg t="1779631103114" class="icon" viewBox="0 0 1024 1024" version="1.1" xmlns="http://www.w3.org/2000/svg" p-id="11324" xmlns:xlink="http://www.w3.org/1999/xlink" width="200" height="200"><path d="M856.539349 1023.999803H167.375111a98.27482 98.27482 0 0 1-98.452034-97.526585v-828.966127A98.27482 98.27482 0 0 1 167.375111 0.000197h689.164238a98.27482 98.27482 0 0 1 98.452034 97.506894v828.966127A98.27482 98.27482 0 0 1 856.539349 1023.999803zM167.375111 73.22882a23.155918 23.155918 0 0 0-24.613009 24.376723v828.966127A23.155918 23.155918 0 0 0 167.375111 950.968084h689.164238a23.155918 23.155918 0 0 0 24.613009-24.396414v-828.966127A23.155918 23.155918 0 0 0 856.539349 73.22882H167.375111z m639.938221 548.515662a36.919513 36.919513 0 0 1-73.839025 0V402.35397a36.919513 36.919513 0 0 1 73.839025 0v219.390512z" fill="#8a8a8a" p-id="11325"></path></svg>