<?xml version="1.0" standalone="no"?><!DOCTYPE svg PUBLIC "-//W3C//DTD SVG 1.1//EN" "http://www.w3.org/Graphics/SVG/1.1/DTD/svg11.dtd"><svg t="1779589669574" class="icon" viewBox="0 0 1024 1024" version="1.1" xmlns="http://www.w3.org/2000/svg" p-id="4055" xmlns:xlink="http://www.w3.org/1999/xlink" width="200" height="200"><path d="M835.456 26.88H187.52A78.08 78.08 0 0 0 109.44 105.216V862.72a78.08 78.08 0 0 0 68.864 76.8l468.992 56.32h9.472a76.8 76.8 0 0 0 76.8-65.792h102.4a78.08 78.08 0 0 0 78.08-78.08V105.216a78.08 78.08 0 0 0-78.08-78.08zM667.776 919.04a11.264 11.264 0 0 1-12.544 11.264l-468.992-56.32a11.264 11.264 0 0 1-9.728-11.264V162.304a11.264 11.264 0 0 1 12.544-10.24l468.992 56.32a11.264 11.264 0 0 1 9.728 11.264z m179.2-65.792a11.264 11.264 0 0 1-11.264 11.264h-100.864V218.624a78.08 78.08 0 0 0-68.864-76.8L273.792 93.952h561.664a11.264 11.264 0 0 1 11.264 11.264z m0 0" fill="#3295FC" p-id="4056"></path><path d="M567.424 462.592a33.536 33.536 0 0 0-33.536 33.536v134.144a33.536 33.536 0 0 0 67.072 0v-134.144a33.536 33.536 0 0 0-33.536-33.536z m0 0" fill="#F8AD4B" p-id="4057"></path></svg>